<svg xmlns="http://www.w3.org/2000/svg" viewBox="0 0 512 512"><path d="M467 0H45C20.187 0 0 20.187 0 45v332c0 24.813 20.187 45 45 45h160.188l-20 60H136c-8.284 0-15 6.716-15 15s6.716 15 15 15h240c8.284 0 15-6.716 15-15s-6.716-15-15-15h-49.188l-20-60H467c24.813 0 45-20.187 45-45V45c0-24.813-20.187-45-45-45zM216.811 482l20-60h38.377l20 60h-78.377zM482 377c0 8.271-6.729 15-15 15H45c-8.271 0-15-6.729-15-15v-15h452v15zm0-45H30V45c0-8.271 6.729-15 15-15h422c8.271 0 15 6.729 15 15v287z"/><path d="M354.321 123.519l-90-60a15 15 0 0 0-16.641 0l-90 60A15.068 15.068 0 0 0 151 136v90c0 5.015 2.506 9.699 6.68 12.481l90 60a15.013 15.013 0 0 0 16.641 0l90-60a15 15 0 0 0 6.68-12.481v-90c0-5.072-2.6-9.76-6.68-12.481zM241 257.972l-60-40v-53.944l60 40v53.944zm15-80L193.042 136 256 94.028 318.958 136 256 177.972zm75 40l-60 40v-53.944l60-40v53.944z"/></svg>