<svg height="511pt" viewBox="0 0 511 511.99925" width="511pt" xmlns="http://www.w3.org/2000/svg"><path d="M437.16 74.652c-99.973-99.601-261.742-99.586-361.668.34C4.484 146.004-17.14 249.906 15.086 341.29l.379 1.07c22.348 62.489 102.504 80.45 149.633 33.32l14.18-14.183c38.1 25.05 90.179 21.063 123.94-12.7l55.622-55.62a19.992 19.992 0 0 0 0-28.281l-18.442-18.442 54.977-54.973c7.812-7.812 7.812-20.472 0-28.28-7.809-7.813-20.473-7.813-28.281 0l-54.977 54.976-17.797-17.797 55.77-55.77c7.808-7.812 7.808-20.472 0-28.28-7.813-7.81-20.473-7.813-28.281 0l-55.77 55.769-18.441-18.442c-7.809-7.812-20.473-7.812-28.282 0l-55.62 55.617C130.073 242.898 125.843 294.95 151 333.215l-14.188 14.183c-25.687 25.688-70.886 17.282-83.687-18.515l-.313-.875c-27.09-76.82-9.21-164.559 50.961-224.73 84.278-84.278 220.688-84.45 305.157-.29 84.343 84.032 84.535 221.367.398 305.621-61.738 61.829-149.926 77.493-224.84 51.07-10.414-3.671-21.84 1.794-25.511 12.212-3.676 10.414 1.793 21.836 12.207 25.507 89.027 31.399 193.453 12.57 266.449-60.527 99.762-99.902 99.55-262.558-.473-362.219zM191.977 237.56l41.48-41.48 82.961 82.96-41.48 41.477c-22.872 22.875-60.086 22.875-82.961 0-22.872-22.871-22.872-60.086 0-82.957zm0 0"/></svg>