<svg xmlns="http://www.w3.org/2000/svg" viewBox="0 0 512 512"><path d="M512 409.861V30.041H0v379.82h168.229v40.751h-56.424v31.347h288.392v-31.347h-56.424v-40.751H512zM31.347 61.388h449.306v257.045H31.347V61.388zm281.077 389.224H199.575v-40.751h112.849v40.751zM31.347 378.514V349.78h449.306v28.735H31.347z"/><path d="M179.521 200.721c12.19-9.471 20.055-24.255 20.055-40.851 0-28.519-23.203-51.722-51.722-51.722-28.519 0-51.722 23.203-51.722 51.722 0 16.596 7.865 31.38 20.055 40.851C97.042 211.73 84.114 232.377 84.114 256v15.673h127.478V256c0-23.623-12.928-44.27-32.071-55.279zm-31.668-61.227c11.235 0 20.375 9.141 20.375 20.375s-9.141 20.376-20.375 20.376-20.376-9.141-20.376-20.376 9.141-20.375 20.376-20.375zm-28.342 100.833c5.531-9.962 16.162-16.718 28.342-16.718 12.179 0 22.81 6.756 28.341 16.718h-56.683zM256 108.147h36.049v31.347H256zM316.082 108.147h108.147v31.347H316.082zM256 174.237h36.049v31.347H256zM316.082 174.237h108.147v31.347H316.082zM256 240.327h36.049v31.347H256zM316.082 240.327h108.147v31.347H316.082z"/></svg>