<svg height="512pt" viewBox="0 -16 512 512" width="512pt" xmlns="http://www.w3.org/2000/svg"><path d="M467 30H207.422C201.227 12.54 184.555 0 165 0H45C20.187 0 0 20.188 0 45v390c0 24.813 20.188 45 45 45h120c19.555 0 36.227-12.54 42.422-30H437c8.285 0 15-6.715 15-15 0-41.355-33.645-75-75-75h-46v-30h136c24.813 0 45-20.188 45-45V75c0-24.813-20.188-45-45-45zm15 45v165H210V60h257c8.27 0 15 6.73 15 15zM210 360v-30h30v30zM30 90h150v30H30zm15-60h120c8.27 0 15 6.73 15 15v15H30V45c0-8.27 6.73-15 15-15zm120 420H45c-8.27 0-15-6.73-15-15V150h150v285c0 8.27-6.73 15-15 15zm254.43-30H210v-30h167c19.559 0 36.238 12.54 42.43 30zM301 360h-31v-30h31zm166-60H210v-30h272v15c0 8.27-6.73 15-15 15zm0 0"/><path d="M105 330c-24.813 0-45 20.188-45 45s20.188 45 45 45 45-20.188 45-45-20.188-45-45-45zm0 60c-8.27 0-15-6.73-15-15s6.73-15 15-15 15 6.73 15 15-6.73 15-15 15zm0 0M119.973 285c0 8.285-6.72 15-15 15-8.285 0-15-6.715-15-15s6.715-15 15-15c8.28 0 15 6.715 15 15zm0 0"/></svg>