<svg xmlns="http://www.w3.org/2000/svg" viewBox="0 0 348 348"><path d="M174 26.9c17.4 14.4 36.1 25.3 56.8 33.1 20.4 7.7 42.4 12.3 66.8 13.8.1 3.3.1 6.7.2 10.1.9 45.3 1.8 96.7-14.5 141.1-8.6 23.2-21 42.5-38 58.9-18.2 17.6-42.1 31.9-71.2 42.8-29-10.9-53-25.2-71.2-42.8-17-16.4-29.4-35.7-38-58.9-16.4-44.4-15.4-95.8-14.5-141.1.1-3.4.1-6.8.2-10.1C75 72.2 97 67.7 117.4 60c20.4-7.9 39.1-18.8 56.6-33.1M174 0C135.5 37.4 90 54.4 30.7 54.4c0 97.4-20.2 236.9 143.3 293.6 163.5-56.7 143.3-196.2 143.3-293.6-59.4 0-104.9-17-143.3-54.4z"/><path d="M162.1 225.8L114.4 178l21.3-21.4 26.4 26.4 50.1-50.1 21.4 21.4z"/></svg>